<svg xmlns="http://www.w3.org/2000/svg" width="22" height="23" viewBox="0 0 22 23">
  <defs>
    <style>
      .cls-1 {
        fill-rule: evenodd;
      }
    </style>
  </defs>
  <path id="Forma_1" data-name="Forma 1" class="cls-1" d="M1188.88,173.671a1.984,1.984,0,0,0-.45.048v2.961a1.754,1.754,0,0,0,.34.026,1.388,1.388,0,0,0,1.52-1.589A1.292,1.292,0,0,0,1188.88,173.671Zm7.64,11.343c0.03,0,.06,0,0.09,0h6.93a1.475,1.475,0,0,0,1.47-1.477V167.4a1.476,1.476,0,0,0-1.47-1.477h-6.93c-0.03,0-.06,0-0.09,0V164l-13.53,1.814v19.325L1196.52,187v-1.986Zm7.02-.839h-6.93a0.551,0.551,0,0,1-.09-0.01v-6.333a13.6,13.6,0,0,1,5.18-.031l0.21,0.4c0.83,1.573,1.71,1.562,2.05,1.485a0.579,0.579,0,0,0,.12-0.038l0.05-.024c0.01-.01.03-0.023,0.04-0.033v3.951A0.631,0.631,0,0,1,1203.54,184.175Zm-6.43-7.094c1.08-1.33,1.96-2.571,2.52-3.412v0l0.01-.01c0.44,0.939,1.18,2.392,1.68,3.384h0l0.01,0.033a14.21,14.21,0,0,0-4.23.02l0.02-.022Zm2.55-6.2a0.2,0.2,0,0,1,.22-0.093,0.412,0.412,0,0,1,.31.171,1.246,1.246,0,0,1-.27,1.1h0s-0.05.087-.15,0.242A2.288,2.288,0,0,1,1199.66,170.876Zm2.89,7.184a4.905,4.905,0,0,1,1.1.585,0.754,0.754,0,0,1,.16.413v0.013C1203.68,179.1,1203.15,179.112,1202.55,178.06Zm-5.94-11.294h6.93a0.631,0.631,0,0,1,.63.634v10.887c-0.02-.029-0.04-0.052-0.05-0.065l-0.02-.034-0.04-.026a5.858,5.858,0,0,0-1.93-.9c-0.53-1.038-1.62-3.2-2.08-4.217,0.26-.413.41-0.653,0.41-0.664a1.809,1.809,0,0,0,.28-1.736,1.028,1.028,0,0,0-.84-0.49,0.83,0.83,0,0,0-.79.412,3.06,3.06,0,0,0,.15,2.23c0.02,0.048.04,0.11,0.07,0.189a46.608,46.608,0,0,1-2.81,3.82V166.776A0.551,0.551,0,0,1,1196.61,166.766Zm-10.15,8.6a1.833,1.833,0,0,1-1.34.453,2.126,2.126,0,0,1-.31-0.022v1.551l-0.89-.024v-4.236a7,7,0,0,1,1.22-.118,1.819,1.819,0,0,1,1.25.323,1.3,1.3,0,0,1,.45,1.02A1.5,1.5,0,0,1,1186.46,175.369Zm4.17,1.593a3.118,3.118,0,0,1-2.07.54,8.116,8.116,0,0,1-1.11-.1v-4.4a8.587,8.587,0,0,1,1.32-.125,2.794,2.794,0,0,1,1.84.451,2.037,2.037,0,0,1,.78,1.749A2.347,2.347,0,0,1,1190.63,176.962Zm1.46-4.123,2.99-.072v0.9l-1.9.028v1.089l1.77,0v0.894l-1.77-.012v1.918l-1.09-.03v-4.714h0Zm-6.9.876a1.452,1.452,0,0,0-.38.045v1.28a1.273,1.273,0,0,0,.31.026,0.7,0.7,0,0,0,.79-0.716A0.615,0.615,0,0,0,1185.19,173.715Z" transform="translate(-1183 -164)"/>
</svg>
